# xmcd
# 
# Track frame offsets:
#     150
#     19495
#     39987
# 
# Disc length: 784
# 
# Revision: 7
# Processed by: cddbd v1.5.2PL0 Copyright (c) Steve Scherf et al.
# Submitted via: fre:ac v1.0.31
# 
DISCID=1d030e03
DTITLE=Mansun - Electric Man (Single EP Thirteen Disc 1)
DYEAR=2000
DGENRE=Alternative
TTITLE0=Electric Man (Single Edit)
TTITLE1=The Drifters
TTITLE2=The Apartment
EXTD=
EXTT0=
EXTT1=
EXTT2=
PLAYORDER=
